<svg xmlns="http://www.w3.org/2000/svg" version="1.1" xmlns:xlink="http://www.w3.org/1999/xlink" width="1000" height="1000"><metadata><rdf:RDF xmlns:rdf="http://www.w3.org/1999/02/22-rdf-syntax-ns#" xmlns:dc="http://purl.org/dc/elements/1.1/"><rdf:Description><dc:creator>RealFaviconGenerator</dc:creator><dc:source>https://realfavicongenerator.net</dc:source></rdf:Description></rdf:RDF></metadata><g clip-path="url(#SvgjsClipPath1138)"><rect width="1000" height="1000" fill="#ffffff"></rect><g transform="matrix(6.6115702479338845,0,0,6.6115702479338845,100,100)"><svg xmlns="http://www.w3.org/2000/svg" version="1.2" viewBox="0 0 121 121" width="121" height="121"><style>
		.s0 { fill: #cecece } 
		.s1 { fill: #000000 } 
	</style><g>
		<path class="s0" d="m13-85.5v-60.5h60.5 60.5v60.5 60.5h-60.5-60.5zm73.25 59.57c2.29-0.27 4.1-0.59 5.86-1.03 0.65-0.17 1.19-0.31 1.21-0.32 0.01-0.01-0.86 0-1.94 0.02-4.34 0.08-10.06-0.61-13.78-1.69-0.57-0.18-1.05-0.31-1.09-0.31-0.04 0-0.06-0.19-0.06-0.41 0-0.46-0.12-0.43 2.01-0.65 9-0.97 18.02-4.86 25.37-10.93 1.83-1.51 5.09-4.82 6.58-6.68 5.44-6.79 8.77-14.68 9.95-23.51 0.3-2.2 0.3-7.11 0.01-9.22-0.26-1.78-0.71-4.05-0.99-5.02l-0.22-0.71-0.21 0.83c-2.22 8.3-6.7 14.58-13.81 19.37-4.53 3.05-9.31 4.94-14.59 5.75-2.32 0.35-7.2 0.45-9.59 0.17-3.8-0.44-7.57-1.48-10.26-2.82-0.82-0.41-0.85-0.45-0.85-0.84 0-0.39 0.02-0.41 0.4-0.41 0.22 0 0.56 0.06 0.74 0.13 0.59 0.22 3.54 0.8 5.21 1 2.15 0.26 6.46 0.18 8.71-0.17 4.44-0.69 8.15-1.88 12.05-3.86 4.18-2.13 7.36-4.48 10.59-7.83 3.4-3.53 5.79-7.44 7.26-11.86 1.43-4.32 1.9-8.31 1.55-13.18l-0.11-1.45h0.4c0.35 0.01 0.46 0.09 0.9 0.71 0.92 1.3 2.32 3.71 3.18 5.49 2.42 5.06 3.86 10.37 4.43 16.31 0.19 1.95 0.19 7 0 8.92-0.67 7.08-2.64 13.34-6.1 19.44-1.76 3.12-3.4 5.36-6.84 9.39-0.14 0.15 0.09 0 0.52-0.34 5.88-4.82 11.25-11.54 14.7-18.43 3.84-7.66 5.64-15.7 5.64-25.3 0.01-11.51-2.87-21.79-8.48-30.37-2.08-3.17-3.85-5.36-6.52-8.06-1.9-1.93-2.58-2.51-1.75-1.48 1.39 1.7 3.88 5.81 5.22 8.63 2.07 4.36 3.98 10.65 4.28 14.07l0.07 0.9h-0.4c-0.39 0-0.43-0.06-0.99-1.1-0.87-1.62-2.94-4.66-4.38-6.46-1.41-1.76-4.48-4.89-6.13-6.29-5.65-4.71-12.56-8.17-19.73-9.84-0.98-0.22-1.13-0.24-0.89-0.08 2.97 2.01 6.75 5.81 8.86 8.95 2.72 4.02 4.57 8.95 5.28 14 0.28 2.08 0.28 7.48 0 9.57-0.96 6.85-3.72 12.37-8.51 16.97-2.54 2.46-6.26 5.01-7.29 5.01-0.33 0-0.35-0.04-0.35-0.4 0-0.35 0.09-0.47 0.74-0.99 0.4-0.33 1.37-1.25 2.16-2.04 5.36-5.51 8.24-11.88 8.79-19.53 0.52-7.02-1.86-15.08-6.3-21.34-2.58-3.64-6.2-7.09-10.17-9.68-2.28-1.48-6.11-3.28-8.2-3.86-0.71-0.2-0.73-0.22-0.73-0.59 0-0.47-0.02-0.46 2.4-0.65 2.3-0.18 7.69-0.08 9.71 0.18 5.8 0.72 10.67 2.06 15.04 4.15 0.85 0.41 1.56 0.72 1.56 0.67 0-0.27-2.14-2.9-3.46-4.24-2.28-2.34-4.86-4.38-7.4-5.88-0.9-0.52-0.96-0.58-0.96-0.96 0-0.37 0.04-0.4 0.34-0.4 0.56 0 3.05 0.77 4.89 1.49 3.46 1.37 6.88 3.28 10.4 5.84 0.37 0.26 0.67 0.43 0.67 0.35 0-0.07-0.86-1-1.91-2.06-3.51-3.51-7.14-6.12-11.85-8.52-8.2-4.17-17.28-6.04-25.55-5.23-0.73 0.06-1.31 0.17-1.28 0.21 0.02 0.05 0.53 0.12 1.11 0.15 2.66 0.19 6.81 1.3 10 2.67 1.58 0.69 3.56 1.74 4.94 2.65 0.84 0.56 0.91 0.64 0.91 1v0.4l-1.5-0.11c-10.34-0.66-21.9 2.87-30.46 9.33-3.43 2.6-7 6.17-9.67 9.69-1 1.31-2.39 3.39-2.27 3.39 0.04 0 0.27-0.13 0.52-0.28 0.66-0.43 3.33-1.75 4.64-2.3 3.2-1.36 6.25-2.17 10.02-2.69 2.26-0.31 8.85-0.31 10.93 0 8.12 1.19 14.26 4.12 19.38 9.24 3.07 3.07 5.44 6.63 6.96 10.46 0.63 1.6 1.25 4.04 1.25 4.93v0.63h-0.38c-0.37 0-0.43-0.06-0.97-1.1-1.34-2.52-3.3-5.4-5.15-7.59-1-1.18-3.19-3.31-4.43-4.31-3.5-2.84-8.28-5.25-12.84-6.44-3.34-0.87-6.29-1.24-9.94-1.24-7.04 0-13.58 1.76-19.44 5.25-2.38 1.42-5.27 3.63-7.39 5.62-0.82 0.77-1.08 0.95-1.37 0.95-0.35 0-0.37-0.01-0.37-0.51 0-1.56 2.87-8.5 5.19-12.55 1.04-1.82 2.77-4.37 3.98-5.91 1.31-1.64 4.67-5.01 6.39-6.4 6.13-4.97 14.16-8.57 22.68-10.14 0.9-0.17 1.78-0.31 1.99-0.31 0.2-0.01 0.02-0.07-0.4-0.13-1.02-0.14-3.75-0.02-6.09 0.27-16.01 2.02-29.19 10.59-36.58 23.8-7.21 12.89-7.44 26.69-0.66 39.41 1.11 2.09 3.98 6.39 3.98 5.97 0-0.06-0.08-0.8-0.18-1.65-0.2-1.78-0.24-5.52-0.06-7.28 0.78-7.8 4.29-14.96 10.07-20.49 4.69-4.5 10.65-7.53 16.99-8.65 1.43-0.25 2.2-0.31 4.61-0.35 2.88-0.06 4.47 0.05 6.24 0.44 0.59 0.13 0.61 0.15 0.61 0.52v0.39l-1.91 0.07c-4.5 0.17-8.82 1.3-13.15 3.45-2.45 1.21-4.42 2.45-6.26 3.91-5.55 4.45-9.64 10.69-11.34 17.37-0.87 3.39-1.18 6.13-1.09 9.68 0.12 4.5 0.87 7.99 2.68 12.45 0.32 0.82 0.59 1.65 0.59 1.87 0 0.35-0.04 0.39-0.37 0.39-0.27 0-0.69-0.22-1.57-0.87-7.1-5.19-13.35-13.16-16.41-20.93-1.42-3.6-2.17-6.63-2.82-11.28-0.25-1.8-0.21-8.97 0.06-10.99 0.73-5.48 2.2-10.21 4.64-15.01 1.51-2.97 3.13-5.45 5.51-8.4 1.34-1.68 1.36-1.71 0.32-0.83-1.28 1.11-4.64 4.51-5.67 5.74-5.91 7.05-9.82 15.33-11.38 24.05-0.7 3.9-0.95 6.82-0.93 11.11 0.01 11.41 2.59 20.54 8.34 29.6 2.47 3.9 6.49 8.52 10 11.52l0.77 0.65-0.95-1.18c-5.36-6.75-8.97-14.19-10.2-21.08-0.14-0.74-0.25-1.5-0.25-1.69 0-0.3 0.04-0.33 0.4-0.33 0.38 0 0.44 0.06 0.83 0.77 1.28 2.32 3.65 5.49 6.13 8.19 7.61 8.26 17.7 13.54 28.84 15.09 2.04 0.28 2.04 0.28 0.71-0.63-3.56-2.41-6.06-4.76-8.3-7.76-3.31-4.45-5.86-10.79-6.58-16.28-0.35-2.75-0.17-7.55 0.35-8.79 0.15-0.34 0.21-0.39 0.64-0.39h0.46l0.08 0.92c0.17 1.89 0.54 4.56 0.83 5.88 1.95 9.04 7.09 16.65 14.65 21.73 3.25 2.17 7.66 4.18 11.32 5.14l1.03 0.27v0.39c0 0.38-0.01 0.39-0.99 0.69-2.13 0.65-4.7 1.19-7.46 1.56-1.81 0.25-7.52 0.35-9.52 0.18-2.52-0.22-6.24-0.92-8.59-1.62-0.37-0.11 0.97 0.58 2.1 1.08 5.62 2.51 12.58 3.71 18.73 3.26 6.27-0.47 11.89-1.93 18.01-4.67 2.8-1.25 6.29-3.28 8.22-4.79 0.38-0.3 0.78-0.6 0.87-0.69 0.11-0.07-0.43-0.01-1.23 0.15-2.78 0.57-4.05 0.69-7.5 0.69-3.45 0.01-4.74-0.09-7.39-0.6-7.86-1.49-14.69-4.94-19.96-10.07-5.05-4.93-8.3-11.4-8.93-17.84-0.06-0.67-0.12-2.12-0.12-3.21v-2h0.47c0.4 0 0.47 0.04 0.47 0.25 0 0.57 0.64 3.3 1.09 4.63 2.33 6.98 7.16 13.06 13.92 17.54 5.1 3.38 11.01 5.55 17.49 6.43 2.22 0.31 6.63 0.43 8.7 0.24 4.51-0.4 8.91-1.54 12.63-3.24 0.72-0.32 1.52-0.61 1.81-0.64l0.5-0.06v0.43c0 0.35-0.17 0.65-0.9 1.62-1.61 2.13-2.66 3.33-4.58 5.25-7.31 7.28-17.09 12.47-27.01 14.36-4.01 0.76-7.07 1-11.23 0.91-4.06-0.09-7.44-0.54-10.87-1.43-1.74-0.45-4.54-1.36-5.54-1.8-0.35-0.17-0.66-0.26-0.69-0.24-0.06 0.06 2.16 1.88 3.15 2.58 2.38 1.67 6.58 3.89 9.63 5.09 6.19 2.45 11.76 3.7 18.91 4.27 1.52 0.12 6.59-0.05 8.56-0.27z"></path>
		<path class="s0" d="m60.11-57.72c-1.38-0.13-3.25-0.57-4.61-1.1-2.98-1.15-5.57-3.03-7.5-5.45-2.1-2.64-3.24-5.34-3.52-8.45-0.39-4.34 0.95-8.37 3.8-11.52 0.35-0.38 0.56-0.65 0.46-0.59-1.38 0.8-3.07 2.33-4.16 3.77-0.86 1.15-1.99 3.43-2.39 4.86-0.35 1.24-0.66 2.95-0.66 3.65 0 0.26-0.04 0.77-0.07 1.11-0.08 0.6-0.09 0.61-0.46 0.61h-0.38l-0.27-1.15c-0.37-1.57-0.45-4.32-0.19-6.04 0.2-1.36 0.8-3.27 1.38-4.42 0.64-1.26 1.77-2.81 2.86-3.9 2.77-2.74 6.56-4.38 10.92-4.71 4.45-0.33 8.67 0.73 11.77 2.98 0.44 0.32 0.79 0.54 0.79 0.5 0-0.19-1.44-1.81-2.19-2.43-2.88-2.48-6.42-3.84-10.54-4.06l-1.45-0.07v-0.39c0-0.37 0.02-0.39 0.63-0.52 1.94-0.43 5.61-0.39 7.78 0.06 2.02 0.43 3.98 1.25 5.79 2.43 1.35 0.89 3.7 3.19 4.56 4.48q1.79 2.68 2.48 5.91c0.32 1.52 0.3 5.1-0.06 6.59-0.58 2.49-1.83 4.93-3.45 6.7-0.46 0.5-0.48 0.56-0.18 0.37 1.3-0.8 3.32-2.79 4.22-4.15 1.61-2.46 2.43-5.02 2.72-8.47l0.14-1.75h0.39c0.35 0 0.39 0.04 0.57 0.61 0.65 2.19 0.78 5.51 0.31 7.74-0.65 3.08-1.89 5.36-4.19 7.67-1.49 1.49-2.61 2.28-4.49 3.19-2.59 1.24-5.33 1.77-8.58 1.67-2.21-0.07-3.62-0.33-5.38-0.97-2.03-0.73-3.41-1.55-5.49-3.21l-0.4-0.33 0.51 0.73c2.49 3.58 6.39 6.03 11.05 6.91l1.37 0.27v0.38c0 0.2-0.04 0.4-0.08 0.43-0.21 0.12-2.78 0.18-3.79 0.07z"></path>
		<path class="s0" d="m19.89-82.26c0.12-2.8 0.82-6.37 1.43-7.31 0.52-0.78 2.34-2.84 3.46-3.9 3.83-3.63 8.87-6.53 13.88-7.96 0.78-0.22 1.62-0.41 1.88-0.41 0.45 0 0.46 0.01 0.46 0.4 0 0.37-0.05 0.41-0.64 0.66-1.09 0.44-3.8 1.97-5.44 3.06-3.71 2.49-6.19 4.76-8.87 8.11-1.6 1.99-3.62 5.35-4.74 7.89l-0.56 1.26h-0.47-0.47c0 0 0.07-1.8 0.08-1.8z"></path>
		<path class="s0" d="m73.62-108.83c-1.67-1.13-4.6-2.69-6.32-3.37-5.57-2.16-10.47-2.86-16.46-2.34l-0.86 0.08 0.04-0.46 0.04-0.46 1.77-0.89c0.98-0.5 2.42-1.17 3.23-1.51 1.76-0.74 2.19-0.77 4.16-0.26 6.36 1.62 11.85 4.55 15.68 8.35 1.09 1.08 1.22 1.24 1.22 1.62 0 0.4-0.02 0.43-0.38 0.41-0.28-0.01-0.86-0.34-2.1-1.18z"></path>
	</g><g>
		<path class="s1" d="m65.34 119.69c-7.13-0.56-12.71-1.82-18.91-4.27-3.05-1.21-7.26-3.43-9.63-5.09-1.96-1.37-4.09-3.3-3.98-3.6 0.08-0.27 0.43-0.2 1.81 0.38 9.3 3.88 20.62 4.49 30.89 1.68 7.47-2.06 13.96-5.45 20.32-10.63 1.52-1.25 4.73-4.42 5.93-5.88 1.29-1.56 2.73-3.47 2.66-3.53-0.04-0.04-0.33 0.07-0.66 0.25-3.53 1.78-8.73 3.18-13.47 3.62-2.22 0.2-7.23 0.08-9.46-0.24-6.5-0.89-12.38-3.06-17.49-6.43-6.76-4.48-11.59-10.55-13.92-17.54-0.45-1.34-1.09-4.06-1.09-4.63 0-0.13-0.05-0.25-0.12-0.25-0.15 0-0.15 2.92 0 4.5 0.26 2.58 0.95 5.23 2 7.74 4.35 10.28 14.35 17.78 26.89 20.17 2.52 0.48 3.96 0.61 6.91 0.61 3.03-0.01 4.31-0.13 7.03-0.66 2.38-0.46 2.53-0.45 2.38 0.17-0.13 0.52-3.32 2.73-6.18 4.28-8.04 4.34-16.99 6.53-25.5 6.27-4.6-0.14-8.28-0.83-12.58-2.34-2.58-0.91-5.45-2.32-6.36-3.12l-0.44-0.39 0.37-0.01c0.19 0 0.83 0.17 1.42 0.37 2.67 0.91 6.64 1.74 9.74 2.01 1.96 0.17 6.96 0.07 8.8-0.18 2.77-0.37 5.38-0.91 7.48-1.57l1.03-0.32-0.59-0.15c-4.19-1.13-8.47-3.05-11.82-5.29-7.56-5.07-12.7-12.69-14.65-21.73-0.28-1.32-0.66-3.99-0.83-5.88-0.05-0.51-0.13-0.92-0.19-0.92-0.66 0-1.05 5.27-0.64 8.47 0.72 5.49 3.27 11.83 6.58 16.28 2.26 3.04 4.92 5.51 8.54 7.94 1.16 0.77 1.42 1.02 1.3 1.22-0.11 0.18-1.47 0.14-2.97-0.06-11.14-1.55-21.23-6.83-28.84-15.09-2.48-2.69-4.86-5.87-6.13-8.2-0.24-0.43-0.45-0.76-0.47-0.73-0.01 0.02 0.09 0.71 0.25 1.51 1.34 7.17 5.1 14.7 10.88 21.74 1.56 1.91 1.76 2.2 1.58 2.3-0.46 0.28-4.53-3.26-7.72-6.74-3.76-4.11-7.57-10.19-9.64-15.4-2.71-6.78-3.82-13-3.83-21.29-0.01-4.63 0.22-7.47 0.93-11.46 1.56-8.72 5.47-16.99 11.38-24.05 1.24-1.49 4.54-4.77 6.14-6.13 1.31-1.11 2.65-2.08 2.86-2.08 0.32 0-0.02 0.57-1.09 1.77-2.25 2.58-4.56 5.7-5.97 8.07q-4.76 8.01-6.04 17.57c-0.27 2.01-0.31 8.51-0.06 10.28 0.65 4.66 1.41 7.68 2.82 11.28 3.05 7.72 9.1 15.48 16.22 20.79 0.74 0.56 1.37 0.99 1.38 0.97 0.02-0.01-0.24-0.69-0.56-1.5-1.21-2.95-1.95-5.59-2.38-8.4-0.31-2-0.44-6.61-0.24-8.66 0.72-7.43 3.33-13.54 8.18-19.14 2.81-3.25 6.2-5.83 10.45-7.92 4.32-2.15 8.63-3.27 13.23-3.47 1.88-0.07 1.89-0.08 1.24-0.22-2.58-0.61-7.03-0.65-10.16-0.11-9.1 1.61-17.28 7.14-22.24 15.05-3.97 6.35-5.59 13.6-4.7 21.17 0.12 1.06 0.19 2.01 0.15 2.09-0.21 0.56-0.93-0.2-2.62-2.73-6.87-10.34-8.83-22.59-5.45-34.15 2.02-6.88 5.86-13.52 10.88-18.78 7.6-7.95 17.85-12.94 29.82-14.5 2.15-0.27 6.31-0.38 7.66-0.19 0.63 0.09 0.96 0.32 0.76 0.51-0.04 0.04-0.73 0.17-1.55 0.3-9.19 1.38-17.85 5.08-24.45 10.42-1.73 1.39-5.08 4.76-6.39 6.4-1.22 1.54-2.94 4.09-3.98 5.91-1.04 1.82-2.67 5.21-3.57 7.44-0.74 1.82-1.62 4.41-1.62 4.76 0 0.09 0.45-0.26 1.02-0.79 3.69-3.49 7.92-6.27 12.24-8.05 4.77-1.96 9.37-2.84 14.95-2.84 4.02 0 6.85 0.34 10.29 1.24 4.56 1.19 9.35 3.6 12.84 6.44 3.6 2.92 6.84 6.92 9.45 11.67 0.89 1.61 0.95 1.51 0.41-0.69-1.12-4.57-3.98-9.42-7.86-13.29-5.12-5.12-11.27-8.06-19.38-9.24-2.06-0.31-7.98-0.3-10.22 0-3.79 0.52-6.83 1.34-10.04 2.71-1.17 0.5-2.14 0.98-5.34 2.66-1.1 0.58-1.08 0.02 0.08-1.8 2.66-4.15 7.07-8.84 11.34-12.08 5.81-4.38 13.16-7.52 20.56-8.77 3.37-0.58 7.28-0.82 9.81-0.61 0.84 0.06 1.55 0.11 1.56 0.08 0.06-0.06-1.82-1.24-3.1-1.95-4.56-2.51-10.59-4.15-15.27-4.15-0.56 0-0.98-0.05-0.98-0.12 0-0.33 2.62-0.78 5.66-0.96 7.87-0.45 16.63 1.49 24.29 5.39 3.26 1.65 5.62 3.17 8.43 5.41 3.21 2.56 6.65 6.35 6.5 7.14-0.04 0.2-0.12 0.15-2.86-1.83-4.35-3.13-9.42-5.68-13.51-6.79-0.6-0.17-1.1-0.28-1.1-0.26 0 0.02 0.43 0.28 0.96 0.59 4.16 2.45 8.53 6.51 10.85 10.1q0.78 1.19 0.28 1.18c-0.12 0-1.09-0.43-2.16-0.93-4.77-2.29-9.48-3.6-15.42-4.34-2.12-0.26-6.74-0.34-9.04-0.17-2.42 0.18-2.62 0.25-1.64 0.52 2.1 0.58 5.93 2.39 8.21 3.86 3.97 2.59 7.6 6.04 10.17 9.68 5.8 8.18 7.79 18.55 5.35 27.92-1.09 4.21-2.94 7.82-5.94 11.54-0.96 1.18-3.18 3.45-4.34 4.41l-0.53 0.45 0.71-0.35c1.68-0.82 4.36-2.8 6.29-4.67 4.79-4.6 7.55-10.13 8.51-16.97 0.28-2.06 0.28-6.81 0-8.86-1.3-9.32-6.09-17.15-13.94-22.78-0.66-0.47-1.21-0.92-1.21-1 0-0.38 1.7-0.09 4.61 0.76 6.88 2 12.54 4.97 17.72 9.3 1.65 1.38 4.73 4.53 6.11 6.26 1.52 1.91 3.08 4.19 4.23 6.17 0.84 1.47 0.84 1.48 0.77 0.89-0.14-1.09-0.66-3.53-1.02-4.84-1.87-6.87-4.64-12.5-9-18.26-0.57-0.74-1.03-1.45-1.03-1.56 0-0.64 1.05 0.13 3.59 2.62 6.09 5.97 10.75 13.72 13.06 21.71 1.84 6.38 2.62 13.01 2.36 20.02-0.22 6.27-1.03 11-2.75 16.24-2.13 6.42-5.21 11.91-10.13 17.96-3.05 3.76-9.31 9.39-10.45 9.39-0.33 0-0.19-0.24 0.92-1.45 3.49-3.83 5.77-6.88 7.7-10.3 3.46-6.11 5.44-12.4 6.1-19.44 0.18-1.93 0.18-6.26 0-8.21-0.56-5.9-2.01-11.25-4.43-16.31-0.89-1.84-2.32-4.3-3.21-5.54l-0.53-0.72 0.09 1.12c0.15 1.87 0.08 5.81-0.13 7.44-0.57 4.23-2.03 8.52-4.12 12.08-1.56 2.65-4.48 6.09-7.15 8.4-4.8 4.17-10.91 7.27-17.1 8.65-2.77 0.61-4.28 0.79-7.62 0.85-2.49 0.05-3.46 0.02-4.75-0.13-1.67-0.21-4.62-0.78-5.22-1-0.69-0.27-0.43-0.01 0.41 0.41 2.69 1.35 6.45 2.39 10.27 2.82 2.33 0.27 6.56 0.19 8.89-0.17 5.27-0.82 10.07-2.71 14.59-5.75 5.58-3.75 9.39-8.26 12.05-14.23 0.45-0.99 0.92-2.4 1.83-5.32 0.22-0.72 0.32-0.89 0.51-0.89 0.19 0 0.3 0.17 0.5 0.79 0.32 0.96 0.78 3.19 1.06 5.18 0.3 2.13 0.3 7.69-0.01 9.93-1.18 8.85-4.51 16.72-9.95 23.51-1.49 1.86-4.75 5.16-6.58 6.68-7.35 6.07-16.37 9.96-25.37 10.93-0.69 0.07-1.43 0.17-1.65 0.2l-0.41 0.06 0.47 0.18c1.32 0.46 4.84 1.21 7.21 1.5 3.38 0.43 7.13 0.52 10.02 0.24 0.66-0.07 0.79-0.05 0.79 0.09 0 0.54-4.31 1.6-8.64 2.12-1.97 0.24-7.63 0.4-9.26 0.27zm0.18-41.84c0.09-0.04-0.46-0.19-1.24-0.35-4.5-0.91-8.3-3.19-10.72-6.46-1.12-1.51-1.68-2.79-1.22-2.79 0.09 0 0.56 0.35 1.03 0.78 1.93 1.75 3.69 2.84 5.94 3.65 5.01 1.82 10.98 1.06 15.49-1.95 1.91-1.29 4.16-3.84 5.22-5.97 1.58-3.19 1.93-7.33 0.89-10.71l-0.2-0.64-0.14 1.68c-0.08 0.92-0.24 2.14-0.34 2.72-0.45 2.23-1.51 4.71-2.78 6.4-1.25 1.68-3.63 3.71-5.12 4.4-1.12 0.51-1.06 0.14 0.25-1.29 1.67-1.84 2.49-3.12 3.26-5.07 0.73-1.83 0.95-3 0.95-5.18 0.01-2.08-0.15-3.11-0.76-4.93-0.79-2.38-1.95-4.19-3.95-6.19-2.43-2.45-5.09-3.91-8.31-4.58-2.12-0.45-5.31-0.47-7.13-0.05l-0.65 0.14 1.42 0.09c1.83 0.11 3.36 0.37 4.77 0.82 3.44 1.1 6.44 3.27 8.26 5.99 0.71 1.08 0.9 1.56 0.58 1.56-0.08 0-0.71-0.43-1.38-0.96-2.16-1.69-4.09-2.62-6.65-3.24-3.9-0.95-8.66-0.39-12.25 1.42-2.87 1.44-5.45 3.99-6.84 6.77-1.47 2.9-1.91 6.64-1.18 9.77l0.28 1.18 0.08-0.53c0.04-0.3 0.08-0.8 0.08-1.13 0.02-1.73 0.71-4.29 1.67-6.26 0.82-1.68 1.74-2.95 3.06-4.22 1.74-1.65 4.38-3.14 4.38-2.45 0 0.05-0.51 0.64-1.13 1.3-2.68 2.88-3.97 5.58-4.3 9.06-0.51 5.36 2.45 11 7.5 14.36 0.59 0.39 1.38 0.87 1.77 1.06 1.87 0.95 4.37 1.68 6.35 1.86 1.08 0.09 2.69 0.06 3.05-0.07zm-43.56-24.93c2-4.5 5.32-9.15 8.76-12.24 2.88-2.6 6.56-5.06 9.91-6.65 0.59-0.28 1.02-0.51 0.93-0.52-0.07 0-0.77 0.19-1.55 0.41-5.01 1.43-10.06 4.34-13.88 7.96-1.12 1.06-2.94 3.12-3.46 3.9-0.57 0.87-1.29 4.34-1.42 6.92-0.06 0.95-0.05 1.48 0.04 1.48 0.06 0 0.37-0.57 0.67-1.26zm54.31-26.5c-0.64-0.77-2.16-2.13-3.57-3.18-2.86-2.14-6.12-3.8-10.02-5.09-1.73-0.57-4.05-1.18-4.51-1.18-0.54 0-5.96 2.45-6.65 3.01-0.22 0.18-0.22 0.19 0.18 0.13 1.04-0.17 5.35-0.21 6.81-0.08 6.03 0.57 11.75 2.58 16.47 5.79 0.95 0.64 1.74 1.17 1.75 1.18 0.02 0-0.18-0.26-0.45-0.58z"></path>
	</g></svg></g></g><defs><clipPath id="SvgjsClipPath1138"><rect width="1000" height="1000" x="0" y="0" rx="500" ry="500"></rect></clipPath></defs></svg>